<svg width="48" height="48" viewBox="0 0 48 48" fill="none" xmlns="http://www.w3.org/2000/svg">
  <rect width="48" height="48" rx="8" fill="#0F1E0F"/>
  <path d="M24 8C15.164 8 8 15.164 8 24C8 32.837 15.164 40 24 40C32.837 40 40 32.837 40 24C40 15.164 32.837 8 24 8ZM24 12C30.627 12 36 17.373 36 24C36 30.627 30.627 36 24 36C17.373 36 12 30.627 12 24C12 17.373 17.373 12 24 12Z" fill="#33FF6A"/>
  <path d="M28 19L24 15L20 19M20 29L24 33L28 29" stroke="#33FF6A" stroke-width="2" stroke-linecap="round" stroke-linejoin="round"/>
  <path d="M24 15V33" stroke="#33FF6A" stroke-width="2" stroke-linecap="round" stroke-linejoin="round"/>
</svg>